HIERARCHY
ROOT Hips
{
	OFFSET 54.218399 -9.793426 94.141998
	CHANNELS 6 Xposition Yposition Zposition Xrotation Yrotation Zrotation
	JOINT spine
	{
		OFFSET 0.000000 -0.448574 7.800591
		CHANNELS 3 Xrotation Yrotation Zrotation
		JOINT spine1
		{
			OFFSET 0.000000 -0.000002 10.136398
			CHANNELS 3 Xrotation Yrotation Zrotation
			JOINT spine2
			{
				OFFSET 0.000000 -0.000002 9.712509
				CHANNELS 3 Xrotation Yrotation Zrotation
				JOINT Neck
				{
					OFFSET 0.000000 -1.188873 24.936104
					CHANNELS 3 Xrotation Yrotation Zrotation
					JOINT Head
					{
						OFFSET 0.000000 -0.000001 7.533844
						CHANNELS 3 Xrotation Yrotation Zrotation
						End Site
						{
							OFFSET 0.000000 6.014017 18.236099
						}
					}
				}
				JOINT RightShoulder
				{
					OFFSET -4.089649 0.569455 10.488808
					CHANNELS 3 Xrotation Yrotation Zrotation
					JOINT RightArm
					{
						OFFSET 0.000000 -0.000002 13.757004
						CHANNELS 3 Xrotation Yrotation Zrotation
						JOINT RightArmRoll
						{
							OFFSET 0.000000 -0.000001 6.944778
							CHANNELS 3 Xrotation Yrotation Zrotation
							JOINT RightForeArm
							{
								OFFSET 0.000000 -0.000004 20.227692
								CHANNELS 3 Xrotation Yrotation Zrotation
								JOINT RightForeArmRoll
								{
									OFFSET 0.000000 -0.000001 7.793121
									CHANNELS 3 Xrotation Yrotation Zrotation
									JOINT RightHand
									{
										OFFSET 0.000000 -0.000003 15.639099
										CHANNELS 3 Xrotation Yrotation Zrotation
										End Site
										{
											OFFSET 0.000000 0.000000 0.100006
										}
									}
								}
							}
						}
					}
				}
				JOINT LeftShoulder
				{
					OFFSET 4.089649 0.569455 10.488808
					CHANNELS 3 Xrotation Yrotation Zrotation
					JOINT LeftArm
					{
						OFFSET 0.000000 -0.000002 13.757004
						CHANNELS 3 Xrotation Yrotation Zrotation
						JOINT LeftArmRoll
						{
							OFFSET 0.000000 -0.000001 6.944778
							CHANNELS 3 Xrotation Yrotation Zrotation
							JOINT LeftForeArm
							{
								OFFSET 0.000000 -0.000004 20.227692
								CHANNELS 3 Xrotation Yrotation Zrotation
								JOINT LeftForeArmRoll
								{
									OFFSET 0.000000 -0.000001 7.793121
									CHANNELS 3 Xrotation Yrotation Zrotation
									JOINT LeftHand
									{
										OFFSET 0.000000 -0.000003 15.639099
										CHANNELS 3 Xrotation Yrotation Zrotation
										End Site
										{
											OFFSET 0.000000 0.000000 0.100006
										}
									}
								}
							}
						}
					}
				}
			}
		}
	}
	JOINT RightUpLeg
	{
		OFFSET -6.914162 1.063581 -1.267883
		CHANNELS 3 Xrotation Yrotation Zrotation
		JOINT RightUpLegRoll
		{
			OFFSET 0.000000 -0.000003 18.337799
			CHANNELS 3 Xrotation Yrotation Zrotation
			JOINT RightLeg
			{
				OFFSET 0.000000 0.000004 -22.708496
				CHANNELS 3 Xrotation Yrotation Zrotation
				JOINT RightLegRoll
				{
					OFFSET 0.000000 -0.000004 22.782799
					CHANNELS 3 Xrotation Yrotation Zrotation
					JOINT RightFoot
					{
						OFFSET 0.000000 -0.000003 18.962898
						CHANNELS 3 Xrotation Yrotation Zrotation
						JOINT RightToeBase
						{
							OFFSET 0.000000 -0.000003 15.852005
							CHANNELS 3 Xrotation Yrotation Zrotation
							End Site
							{
								OFFSET 0.006718 0.884891 7.677017
							}
						}
					}
				}
			}
		}
	}
	JOINT LeftUpLeg
	{
		OFFSET 6.914162 1.063581 -1.267883
		CHANNELS 3 Xrotation Yrotation Zrotation
		JOINT LeftUpLegRoll
		{
			OFFSET 0.000000 -0.000003 18.337898
			CHANNELS 3 Xrotation Yrotation Zrotation
			JOINT LeftLeg
			{
				OFFSET 0.000000 -0.000004 22.708397
				CHANNELS 3 Xrotation Yrotation Zrotation
				JOINT LeftLegRoll
				{
					OFFSET 0.000000 -0.000004 22.993408
					CHANNELS 3 Xrotation Yrotation Zrotation
					JOINT LeftFoot
					{
						OFFSET 0.000000 -0.000003 18.752197
						CHANNELS 3 Xrotation Yrotation Zrotation
						JOINT LeftToeBase
						{
							OFFSET 0.000000 -0.000003 15.852005
							CHANNELS 3 Xrotation Yrotation Zrotation
							End Site
							{
								OFFSET -0.030113 0.884892 7.677002
							}
						}
					}
				}
			}
		}
	}
}
MOTION
Frames: 5
Frame Time: 0.041667
56.996899 -8.587215 94.015900 -4.882670 -0.167472 -0.871091 -0.334838 0.024124 0.207404 3.322991 0.040557 0.423920 4.968041 0.045647 0.423302 14.307841 12.253071 -1.662542 -13.722904 -9.578971 -2.212395 -15.189707 -74.145597 -18.289863 -67.915849 -103.358842 -52.747222 0.000002 0.000005 0.000006 10.984439 -10.583762 0.079810 0.000002 0.000001 -3.000001 -5.000170 -7.998805 0.000146 1.339593 69.968260 -0.151081 7.269989 101.122214 -24.250074 0.000001 -0.000001 -0.000004 15.666289 4.570365 0.536975 0.000002 0.000003 3.006820 -5.000209 7.999488 -0.000068 -0.334803 -174.098093 1.160762 -179.999991 0.000005 -0.913000 167.615888 0.236371 -0.896097 -0.000007 -0.000002 0.038341 71.088554 5.455396 5.904457 25.456933 -7.348656 0.000004 -2.402401 178.600226 6.218141 -0.000004 -0.000005 -1.374979 -14.384739 4.298843 0.864837 -0.000009 0.000001 -0.258051 73.539820 -7.120460 -1.083493 25.462819 7.355622 -0.007621 
56.999298 -8.591782 94.016197 -4.885491 -0.168542 -0.868991 -0.336801 0.024194 0.207403 3.319791 0.041381 0.424015 4.964852 0.046468 0.423394 14.339441 12.242654 -1.666710 -13.715798 -9.571680 -2.212099 -15.175036 -74.134156 -18.273661 -67.849412 -103.388457 -52.810066 0.000002 0.000006 0.000005 11.104773 -10.642210 0.097786 0.000002 0.000002 -3.000001 -5.000171 -7.998803 0.000147 1.342784 69.970432 -0.154357 6.900271 101.105467 -23.785176 0.000001 -0.000002 -0.000004 15.738236 4.619045 0.531351 0.000002 0.000003 3.006821 -5.000208 7.999490 -0.000069 -0.331852 -174.097096 1.162991 -179.999991 0.000005 -0.913000 167.616503 0.234410 -0.896530 -0.000006 -0.000002 0.038341 71.087871 5.455585 5.903921 25.456936 -7.348654 0.000003 -2.400002 178.598232 6.214517 -0.000004 -0.000004 -1.374980 -14.383506 4.302656 0.864843 -0.000009 0.000001 -0.258051 73.540490 -7.120748 -1.081892 25.462821 7.355622 -0.007621 
56.997002 -8.581365 94.015503 -4.888269 -0.169607 -0.867090 -0.338770 0.024257 0.207403 3.316600 0.042189 0.424116 4.961651 0.047273 0.423493 14.370412 12.231974 -1.670851 -13.707752 -9.563462 -2.211742 -15.160554 -74.123125 -18.257661 -67.784075 -103.418005 -52.874533 0.000002 0.000005 0.000005 11.224785 -10.701262 0.116142 0.000001 0.000001 -3.000002 -5.000171 -7.998804 0.000148 1.345069 69.972419 -0.156661 6.530464 101.088179 -23.319598 0.000001 -0.000000 -0.000004 15.808717 4.668452 0.525533 0.000002 0.000002 3.006820 -5.000209 7.999489 -0.000068 -0.328922 -174.097096 1.165272 -179.999991 0.000005 -0.913000 167.617200 0.231490 -0.896177 -0.000007 -0.000002 0.038341 71.087093 5.455766 5.903388 25.456935 -7.348653 0.000003 -2.397544 178.597221 6.210666 -0.000004 -0.000004 -1.374980 -14.382080 4.306666 0.864847 -0.000008 0.000001 -0.258050 73.541282 -7.121082 -1.079891 25.462821 7.355622 -0.007621 
56.992901 -8.584365 94.016289 -4.891022 -0.170667 -0.865328 -0.340751 0.024315 0.207404 3.313420 0.042985 0.424222 4.958471 0.048067 0.423598 14.400954 12.221026 -1.674949 -13.698860 -9.554593 -2.211315 -15.146267 -74.112402 -18.241871 -67.719980 -103.447593 -52.940537 0.000002 0.000006 0.000004 11.344662 -10.760520 0.134813 0.000001 0.000002 -3.000001 -5.000170 -7.998803 0.000146 1.346731 69.974414 -0.158278 6.159122 101.072354 -22.852150 0.000000 -0.000001 -0.000003 15.878125 4.718349 0.519544 0.000002 0.000003 3.006819 -5.000208 7.999489 -0.000067 -0.326011 -174.096099 1.167586 -179.999991 0.000005 -0.913000 167.617992 0.228555 -0.895828 -0.000006 -0.000002 0.038341 71.086198 5.455944 5.902860 25.456935 -7.348654 0.000004 -2.395054 178.595226 6.206751 -0.000005 -0.000004 -1.374980 -14.380553 4.310804 0.864845 -0.000009 0.000001 -0.258051 73.542177 -7.121376 -1.077974 25.462819 7.355621 -0.007621 
56.990398 -8.571963 93.999802 -4.893754 -0.171726 -0.863647 -0.342731 0.024371 0.207404 3.310241 0.043775 0.424332 4.955292 0.048854 0.423705 14.431285 12.209990 -1.679046 -13.689651 -9.545343 -2.210878 -15.132142 -74.101863 -18.226256 -67.655995 -103.477106 -53.006854 0.000002 0.000006 0.000004 11.464408 -10.819984 0.153778 0.000000 0.000001 -3.000001 -5.000171 -7.998805 0.000148 1.348023 69.976196 -0.159497 5.786149 101.057963 -22.382943 0.000001 -0.000001 -0.000004 15.946962 4.768530 0.513412 0.000004 0.000003 3.006820 -5.000209 7.999489 -0.000070 -0.323104 -174.095102 1.169909 -179.999991 0.000005 -0.913000 167.619003 0.225634 -0.896473 -0.000006 -0.000001 0.038341 71.085214 5.456144 5.902244 25.456940 -7.348653 0.000003 -2.392536 178.593218 6.202752 -0.000004 -0.000004 -1.374980 -14.379032 4.315010 0.864846 -0.000008 0.000001 -0.258051 73.543078 -7.121701 -1.075866 25.462821 7.355622 -0.007621 
